<?xml version="1.0" standalone="no"?>
<!DOCTYPE svg PUBLIC "-//W3C//DTD SVG 20010904//EN"
 "http://www.w3.org/TR/2001/REC-SVG-20010904/DTD/svg10.dtd">
<svg version="1.0" xmlns="http://www.w3.org/2000/svg"
 width="1200.000000pt" height="1200.000000pt" viewBox="0 0 1200.000000 1200.000000"
 preserveAspectRatio="xMidYMid meet">

<g transform="translate(0.000000,1200.000000) scale(0.100000,-0.100000)"
fill="#000000" stroke="none">
<path d="M5893 7663 l-73 -35 0 -49 c0 -27 4 -49 9 -49 4 0 38 14 75 30 l66
30 0 55 c0 30 -1 55 -2 54 -2 0 -36 -16 -75 -36z"/>
<path d="M6030 7645 l0 -55 66 -30 c37 -16 71 -30 76 -30 5 0 8 22 6 50 l-3
50 -72 35 -73 34 0 -54z"/>
<path d="M5713 7577 l-63 -31 0 -48 c0 -26 2 -48 4 -48 2 0 33 14 70 30 l66
30 0 50 c0 28 -3 50 -7 49 -5 0 -36 -14 -70 -32z"/>
<path d="M5888 7518 l-68 -31 0 -53 0 -53 75 32 75 31 0 53 c0 29 -3 53 -7 52
-5 0 -38 -14 -75 -31z"/>
<path d="M6030 7497 l0 -53 75 -31 75 -32 0 53 0 53 -70 32 c-39 17 -72 31
-75 31 -3 0 -5 -24 -5 -53z"/>
<path d="M6380 7482 l0 -49 60 -26 60 -26 0 48 0 47 -55 27 c-31 15 -58 27
-60 27 -3 0 -5 -22 -5 -48z"/>
<path d="M6212 7419 l3 -51 50 -19 c91 -35 85 -36 85 19 l0 48 -65 27 c-36 15
-68 27 -71 27 -3 0 -4 -23 -2 -51z"/>
<path d="M5558 7373 c-58 -25 -58 -26 -58 -69 0 -24 3 -44 7 -44 4 0 31 10 60
22 l53 22 0 48 c0 26 -1 48 -2 47 -2 0 -29 -12 -60 -26z"/>
<path d="M5883 7372 l-63 -25 0 -52 0 -53 73 27 72 27 3 52 c4 61 3 61 -85 24z"/>
<path d="M6032 7348 l3 -52 73 -27 72 -27 0 53 0 52 -68 26 c-37 15 -71 27
-75 27 -5 0 -7 -23 -5 -52z"/>
<path d="M6380 7352 l0 -49 56 -22 c31 -11 58 -21 60 -21 2 0 4 20 4 43 0 47
2 45 -87 83 l-33 14 0 -48z"/>
<path d="M6660 7355 c0 -46 13 -59 78 -79 20 -7 22 -4 22 33 0 39 -2 42 -50
66 l-50 25 0 -45z"/>
<path d="M5278 7369 c-34 -18 -38 -23 -38 -60 0 -37 2 -40 23 -33 62 19 77 33
77 74 0 46 -8 48 -62 19z"/>
<path d="M5720 7310 l-65 -26 -3 -52 -3 -51 68 25 c37 14 69 27 71 29 2 1 2
25 0 52 l-3 50 -65 -27z"/>
<path d="M5410 7311 c-44 -18 -45 -20 -48 -66 -2 -36 0 -46 10 -42 104 41 98
36 98 83 0 24 -3 44 -7 43 -5 0 -28 -8 -53 -18z"/>
<path d="M6210 7281 c0 -28 2 -51 5 -51 2 0 34 -11 70 -25 l65 -24 0 50 c0 50
0 50 -46 69 -25 11 -57 23 -70 26 -23 6 -24 4 -24 -45z"/>
<path d="M5288 7257 c-47 -19 -48 -20 -48 -63 l0 -44 43 17 c57 22 59 24 55
70 l-3 40 -47 -20z"/>
<path d="M6660 7236 c0 -26 5 -46 13 -49 6 -3 29 -12 50 -21 l37 -16 0 44 c0
43 -1 44 -50 64 l-50 21 0 -43z"/>
<path d="M5560 7246 l-55 -22 -3 -48 c-3 -44 -1 -48 15 -41 10 4 37 14 61 22
42 15 42 15 42 64 0 27 -1 49 -2 49 -2 -1 -28 -11 -58 -24z"/>
<path d="M6380 7221 c0 -49 0 -49 43 -64 23 -8 50 -18 60 -22 15 -6 17 -1 17
38 0 51 3 48 -68 76 l-52 21 0 -49z"/>
<path d="M5893 7233 l-73 -25 0 -49 c0 -56 0 -56 85 -30 64 20 71 30 63 99
l-3 29 -72 -24z"/>
<path d="M6032 7203 l3 -55 60 -19 c85 -26 85 -26 85 30 l0 49 -75 26 -76 25
3 -56z"/>
<path d="M6780 7185 c0 -41 2 -44 40 -59 56 -22 60 -21 60 22 0 36 -2 39 -50
59 l-50 21 0 -43z"/>
<path d="M5408 7188 c-47 -20 -48 -22 -48 -64 0 -24 1 -44 3 -44 1 0 25 9 52
19 49 19 50 20 53 65 2 25 -1 46 -5 45 -4 0 -29 -10 -55 -21z"/>
<path d="M6532 7165 c3 -47 4 -47 53 -66 28 -10 51 -19 53 -19 1 0 2 20 2 44
0 47 6 42 -98 83 -10 4 -12 -6 -10 -42z"/>
<path d="M5720 7176 l-65 -23 -3 -50 -3 -51 71 21 70 20 0 54 c0 29 -1 53 -2
52 -2 0 -32 -11 -68 -23z"/>
<path d="M5053 7155 c-28 -12 -33 -19 -33 -50 0 -39 1 -40 47 -23 29 11 33 16
33 50 0 42 -2 43 -47 23z"/>
<path d="M6660 7116 c0 -44 1 -44 47 -60 26 -9 48 -16 50 -16 2 0 3 18 3 40 0
39 -2 42 -46 60 -25 11 -48 20 -50 20 -2 0 -4 -20 -4 -44z"/>
<path d="M6380 7090 l0 -48 47 -16 c69 -24 73 -22 73 28 l0 44 -60 20 -60 21
0 -49z"/>
<path d="M5158 7092 c-34 -15 -38 -21 -38 -54 0 -43 -1 -42 51 -26 38 11 39
13 39 55 0 48 0 48 -52 25z"/>
<path d="M5883 7088 l-63 -20 0 -53 0 -54 67 20 c38 10 71 19 75 19 5 0 8 25
8 55 0 63 3 62 -87 33z"/>
<path d="M6030 7055 c0 -30 3 -55 8 -55 4 0 37 -9 75 -19 l67 -20 0 54 0 53
-69 21 c-38 12 -72 21 -75 21 -3 0 -6 -25 -6 -55z"/>
<path d="M6780 7070 c0 -42 8 -49 75 -66 23 -6 25 -4 25 32 0 36 -3 40 -43 57
-23 9 -46 17 -50 17 -4 0 -7 -18 -7 -40z"/>
<path d="M5413 7068 c-53 -21 -53 -21 -53 -65 0 -35 3 -44 14 -40 8 3 32 11
55 18 41 12 41 13 41 61 0 26 -1 48 -2 47 -2 0 -27 -10 -55 -21z"/>
<path d="M6900 7029 c0 -36 3 -41 35 -55 46 -19 45 -19 45 24 0 36 -3 40 -40
55 l-40 15 0 -39z"/>
<path d="M5775 7055 c-5 -2 -36 -11 -67 -20 l-58 -16 0 -51 c0 -36 4 -49 13
-45 6 2 38 10 70 17 l57 13 0 54 c0 29 -1 53 -2 52 -2 0 -7 -2 -13 -4z"/>
<path d="M6210 7006 l0 -53 48 -11 c26 -6 57 -14 70 -18 21 -6 22 -3 22 44 0
43 -3 51 -22 56 -13 3 -44 12 -70 20 l-48 15 0 -53z"/>
<path d="M5283 7023 c-42 -14 -43 -16 -43 -58 l0 -43 50 16 c50 16 50 16 50
59 0 48 1 47 -57 26z"/>
<path d="M6660 6997 c0 -43 0 -43 50 -59 l50 -16 0 43 c0 42 -1 43 -47 59 -26
9 -48 16 -50 16 -2 0 -3 -19 -3 -43z"/>
<path d="M7000 6991 c0 -35 3 -40 31 -50 46 -16 49 -15 49 24 0 19 -2 35 -4
35 -2 0 -20 7 -40 15 l-36 15 0 -39z"/>
<path d="M5560 6990 l-55 -17 -3 -47 c-2 -25 0 -46 3 -46 4 0 31 7 61 16 l54
15 0 50 c0 27 -1 49 -2 48 -2 -1 -28 -9 -58 -19z"/>
<path d="M6380 6960 l0 -49 54 -15 c30 -9 57 -16 61 -16 3 0 5 21 3 47 l-3 47
-57 17 -58 17 0 -48z"/>
<path d="M5163 6982 c-40 -15 -43 -19 -43 -54 0 -43 -1 -42 51 -26 38 11 39
13 39 55 0 23 -1 43 -2 42 -2 0 -22 -8 -45 -17z"/>
<path d="M6780 6957 c0 -40 2 -45 28 -51 15 -3 37 -8 50 -12 20 -6 22 -3 22
33 0 36 -3 40 -37 52 -21 8 -44 16 -50 18 -9 4 -13 -8 -13 -40z"/>
<path d="M5930 6958 c-121 -31 -110 -23 -110 -82 l0 -53 68 15 c37 8 71 18 75
22 5 4 7 29 5 57 l-3 49 -35 -8z"/>
<path d="M6032 6912 l3 -56 73 -17 72 -16 0 53 0 53 -42 11 c-24 6 -58 15 -76
20 l-33 9 3 -57z"/>
<path d="M5053 6944 c-28 -12 -33 -19 -33 -50 0 -35 1 -35 33 -29 46 10 47 12
47 56 0 43 -1 44 -47 23z"/>
<path d="M6530 6915 c0 -44 0 -44 43 -55 23 -6 48 -13 55 -15 8 -3 12 9 12 40
l0 44 -52 16 c-28 8 -53 15 -55 15 -2 0 -3 -20 -3 -45z"/>
<path d="M6900 6921 c0 -44 1 -46 48 -56 31 -6 32 -6 32 29 0 32 -4 37 -36 51
-20 8 -38 15 -40 15 -2 0 -4 -18 -4 -39z"/>
<path d="M5278 6908 c-37 -10 -38 -11 -38 -55 0 -35 3 -44 14 -40 8 3 31 9 50
13 35 6 36 8 36 50 0 48 -1 48 -62 32z"/>
<path d="M5713 6902 l-63 -15 0 -49 c0 -54 -1 -53 80 -34 l55 12 3 52 c2 29
-1 51 -5 51 -4 -1 -36 -8 -70 -17z"/>
<path d="M6212 6869 l3 -53 55 -12 c81 -19 80 -20 80 34 l0 49 -57 13 c-32 7
-64 15 -71 18 -10 3 -12 -8 -10 -49z"/>
<path d="M6660 6876 c0 -42 1 -44 36 -50 19 -4 42 -10 50 -13 11 -4 14 5 14
39 0 43 -1 45 -39 56 -58 18 -61 16 -61 -32z"/>
<path d="M6780 6847 c0 -44 0 -45 44 -56 25 -6 47 -11 50 -11 3 0 6 18 6 40 0
38 -2 40 -42 51 -24 6 -46 13 -50 16 -5 2 -8 -16 -8 -40z"/>
<path d="M5153 6869 c-30 -9 -33 -13 -33 -49 0 -44 0 -44 53 -29 35 9 37 12
37 49 0 43 -3 44 -57 29z"/>
<path d="M5558 6862 l-58 -14 0 -48 0 -48 55 13 c31 7 58 15 61 18 3 3 4 25 2
49 l-3 44 -57 -14z"/>
<path d="M6380 6829 c0 -47 1 -48 38 -58 89 -22 82 -24 82 29 l0 48 -60 15
-60 15 0 -49z"/>
<path d="M5410 6826 c-44 -12 -45 -13 -48 -57 l-3 -46 56 10 55 10 0 49 c0 26
-3 48 -7 47 -5 -1 -28 -6 -53 -13z"/>
<path d="M5883 6803 l-63 -15 0 -49 c0 -56 1 -56 93 -38 l57 12 0 53 c0 61 5
59 -87 37z"/>
<path d="M6030 6767 l0 -54 57 -12 c92 -18 93 -18 93 38 l0 49 -52 12 c-29 6
-63 13 -75 16 -22 6 -23 3 -23 -49z"/>
<path d="M7000 6783 c0 -37 2 -39 40 -50 l40 -10 0 38 c0 30 -4 39 -22 44 -61
18 -58 19 -58 -22z"/>
<path d="M6660 6766 c0 -51 2 -53 58 -62 l42 -7 0 41 c0 40 -1 42 -42 53 -24
6 -46 13 -50 16 -5 2 -8 -16 -8 -41z"/>
<path d="M5273 6789 c-30 -9 -33 -13 -33 -51 l0 -41 42 7 c56 9 58 11 58 57 0
43 -6 45 -67 28z"/>
<path d="M5705 6766 l-50 -12 -3 -48 -3 -48 57 7 c83 10 84 11 84 66 0 55 0
55 -85 35z"/>
<path d="M6210 6731 c0 -55 1 -56 84 -66 l57 -7 -3 48 -3 48 -60 13 c-33 7
-63 12 -67 13 -5 0 -8 -22 -8 -49z"/>
<path d="M5560 6736 l-55 -11 -3 -49 -3 -48 47 7 c72 10 74 12 74 66 0 27 -1
48 -2 48 -2 -1 -28 -6 -58 -13z"/>
<path d="M6380 6700 c0 -53 2 -55 74 -65 l47 -7 -3 48 -3 48 -57 12 -58 11 0
-47z"/>
<path d="M5043 6730 c-18 -7 -23 -17 -23 -46 0 -36 1 -36 31 -30 17 3 35 6 40
6 5 0 9 18 9 40 0 43 -11 48 -57 30z"/>
<path d="M6900 6701 c0 -35 3 -39 31 -45 48 -9 49 -9 49 29 0 29 -5 37 -26 45
-45 18 -54 13 -54 -29z"/>
<path d="M5455 6715 c-5 -2 -29 -9 -52 -15 -43 -11 -43 -11 -43 -56 0 -38 3
-45 18 -40 9 3 34 8 55 12 37 6 37 6 37 55 0 27 -1 49 -2 48 -2 0 -7 -2 -13
-4z"/>
<path d="M6530 6671 c0 -48 0 -49 38 -55 20 -4 45 -9 55 -12 14 -5 17 2 17 40
0 45 0 45 -42 56 -24 6 -49 13 -55 15 -9 3 -13 -10 -13 -44z"/>
<path d="M7000 6682 c0 -33 4 -41 23 -46 47 -13 57 -8 57 28 0 27 -5 36 -22
41 -61 18 -58 19 -58 -23z"/>
<path d="M5288 6678 l-48 -10 0 -44 c0 -42 1 -44 25 -39 14 3 36 7 50 10 22 5
25 10 25 50 0 25 -1 44 -2 44 -2 -1 -24 -6 -50 -11z"/>
<path d="M6660 6644 c0 -38 3 -44 25 -49 14 -3 36 -7 50 -10 24 -5 25 -3 25
38 l0 44 -50 10 -50 10 0 -43z"/>
<path d="M5868 6658 l-48 -10 0 -52 0 -52 75 10 75 9 0 54 c0 51 -1 53 -27 52
-16 -1 -49 -6 -75 -11z"/>
<path d="M6030 6617 l0 -54 75 -9 75 -10 0 52 0 51 -57 12 c-93 18 -93 19 -93
-42z"/>
<path d="M5153 6649 c-30 -9 -33 -13 -33 -50 0 -38 2 -41 23 -35 12 3 32 6 45
6 19 0 22 5 22 45 0 48 -2 50 -57 34z"/>
<path d="M6780 6620 c0 -43 2 -45 63 -55 l37 -6 0 40 c0 42 -1 43 -67 56 -33
7 -33 7 -33 -35z"/>
<path d="M5085 6634 c-5 -1 -22 -5 -37 -8 -25 -6 -28 -11 -28 -46 0 -39 0 -39
33 -33 17 3 36 9 40 13 12 10 4 77 -8 74z"/>
<path d="M5693 6628 l-43 -9 0 -50 c0 -50 0 -51 28 -45 15 3 46 8 70 11 l42 7
0 49 c0 47 -1 49 -27 48 -16 -1 -47 -5 -70 -11z"/>
<path d="M6900 6599 c0 -40 2 -42 53 -53 26 -6 27 -5 27 34 0 35 -3 40 -27 46
-16 3 -34 7 -40 10 -9 2 -13 -9 -13 -37z"/>
<path d="M5558 6608 l-58 -10 0 -50 0 -49 38 6 c86 14 82 11 82 65 0 28 -1 49
-2 49 -2 -1 -29 -6 -60 -11z"/>
<path d="M6380 6568 c0 -52 -4 -49 83 -63 l37 -6 0 49 0 49 -60 10 -60 10 0
-49z"/>
<path d="M5425 6583 c-11 -2 -30 -6 -42 -9 -20 -4 -23 -11 -23 -47 0 -43 0
-44 33 -40 76 9 77 10 77 58 0 46 -2 48 -45 38z"/>
<path d="M6530 6546 c0 -44 1 -45 38 -51 20 -3 45 -8 55 -10 14 -3 17 4 17 40
0 47 -1 47 -72 60 l-38 6 0 -45z"/>
<path d="M5305 6563 c-11 -2 -30 -6 -42 -9 -19 -4 -23 -11 -23 -45 l0 -42 38
7 c20 3 43 6 50 6 8 0 12 16 12 45 0 25 -3 44 -7 44 -5 -1 -17 -3 -28 -6z"/>
<path d="M5185 6542 c-63 -9 -65 -11 -65 -52 l0 -40 43 6 c23 4 43 8 45 9 2 2
2 20 0 42 -2 32 -6 38 -23 35z"/>
<path d="M6780 6505 c0 -42 2 -45 28 -45 15 0 37 -3 50 -6 20 -6 22 -3 22 35
0 35 -3 41 -25 46 -14 3 -36 7 -50 10 -24 5 -25 3 -25 -40z"/>
<path d="M5048 6523 c-25 -4 -28 -8 -28 -44 0 -35 3 -39 24 -39 45 0 56 10 56
51 0 25 -4 38 -12 38 -7 -1 -25 -4 -40 -6z"/>
<path d="M5930 6524 c-8 -1 -36 -6 -62 -9 l-48 -6 0 -50 0 -49 44 0 c24 0 58
3 75 6 30 6 31 8 31 60 0 54 -2 57 -40 48z"/>
<path d="M6030 6477 c0 -53 1 -55 31 -61 17 -3 51 -6 75 -6 l44 0 0 49 0 50
-47 6 c-27 3 -60 9 -75 11 -28 6 -28 5 -28 -49z"/>
<path d="M6900 6492 c0 -42 10 -52 56 -52 21 0 24 4 24 40 0 31 -4 40 -17 40
-10 0 -28 3 -40 6 -21 6 -23 3 -23 -34z"/>
<path d="M4943 6503 c-19 -4 -23 -11 -23 -41 l0 -38 40 4 c39 4 40 5 40 43 0
41 -3 42 -57 32z"/>
<path d="M5683 6493 c-32 -4 -33 -5 -33 -55 l0 -51 46 7 c26 3 57 6 70 6 22 0
24 4 24 50 l0 50 -37 -2 c-21 0 -53 -3 -70 -5z"/>
<path d="M5518 6473 c-14 -3 -18 -15 -18 -49 l0 -44 44 0 c68 0 76 6 76 56 l0
44 -42 -1 c-24 -1 -51 -3 -60 -6z"/>
<path d="M6380 6436 c0 -50 8 -56 76 -56 l44 0 0 44 c0 49 -10 56 -82 56 l-38
0 0 -44z"/>
<path d="M5410 6461 l-45 -6 -3 -45 -3 -45 56 3 55 4 0 49 c0 27 -3 48 -7 47
-5 0 -28 -4 -53 -7z"/>
<path d="M6530 6420 l0 -48 55 -4 55 -3 0 43 c0 46 -2 48 -67 55 l-43 5 0 -48z"/>
<path d="M6660 6405 c0 -45 0 -45 34 -45 19 0 41 -3 50 -6 13 -5 16 2 16 39 0
44 -1 44 -37 51 -62 10 -63 9 -63 -39z"/>
<path d="M6780 6393 c0 -42 1 -43 34 -43 19 0 42 -3 51 -6 14 -6 16 0 13 37
l-3 44 -47 5 -48 6 0 -43z"/>
<path d="M5127 6423 c-4 -3 -7 -24 -7 -46 0 -32 3 -38 16 -33 9 3 29 6 45 6
27 0 29 2 29 40 0 40 0 40 -38 40 -21 0 -42 -3 -45 -7z"/>
<path d="M5038 6413 c-13 -3 -18 -15 -18 -41 l0 -38 40 4 c39 4 40 5 40 43 0
41 -10 46 -62 32z"/>
<path d="M6900 6381 c0 -38 1 -39 40 -43 l40 -4 0 37 c0 30 -4 38 -22 43 -50
13 -58 8 -58 -33z"/>
<path d="M7000 6372 c0 -39 1 -40 40 -44 l40 -4 0 38 c0 29 -4 38 -17 38 -10
0 -28 3 -40 6 -21 6 -23 3 -23 -34z"/>
<path d="M5853 6373 c-32 -4 -33 -5 -33 -56 l0 -52 75 3 75 4 0 54 0 54 -42
-2 c-24 0 -58 -3 -75 -5z"/>
<path d="M6030 6326 l0 -54 75 -4 75 -3 0 51 0 51 -46 7 c-26 3 -60 6 -75 6
-28 0 -29 -1 -29 -54z"/>
<path d="M5708 6363 l-58 -4 0 -49 0 -50 70 0 70 0 0 55 c0 38 -4 54 -12 53
-7 -1 -39 -3 -70 -5z"/>
<path d="M6210 6316 l0 -56 70 0 70 0 0 50 0 50 -47 0 c-27 0 -58 3 -70 6 -22
6 -23 4 -23 -50z"/>
<path d="M5500 6300 l0 -51 58 3 57 3 3 48 3 47 -60 0 -61 0 0 -50z"/>
<path d="M6380 6306 c0 -50 8 -56 76 -56 l44 0 0 50 0 50 -60 0 -60 0 0 -44z"/>
<path d="M5373 6333 c-8 -2 -13 -22 -13 -44 l0 -39 55 0 55 0 0 45 0 45 -42
-1 c-24 0 -49 -3 -55 -6z"/>
<path d="M5240 6285 l0 -45 50 0 50 0 0 45 0 45 -50 0 -50 0 0 -45z"/>
<path d="M6660 6285 l0 -45 50 0 50 0 0 45 0 45 -50 0 -50 0 0 -45z"/>
<path d="M5120 6277 l0 -42 45 3 45 4 0 39 0 39 -45 0 -45 0 0 -43z"/>
<path d="M6780 6281 l0 -39 50 -4 50 -3 0 43 0 42 -50 0 -50 0 0 -39z"/>
<path d="M4958 6303 c-36 -4 -38 -6 -38 -39 0 -33 1 -34 40 -34 l40 0 0 40 c0
22 -1 39 -2 38 -2 -1 -20 -3 -40 -5z"/>
<path d="M7000 6268 c0 -38 0 -38 40 -38 39 0 40 1 40 34 0 32 -2 34 -40 38
l-40 4 0 -38z"/>
<path d="M5673 6223 c-20 -4 -23 -11 -23 -49 l0 -44 70 0 70 0 0 50 0 50 -47
-1 c-27 -1 -58 -4 -70 -6z"/>
<path d="M5820 6180 l0 -50 75 0 75 0 0 50 0 50 -75 0 -75 0 0 -50z"/>
<path d="M6030 6180 l0 -50 75 0 75 0 0 50 0 50 -75 0 -75 0 0 -50z"/>
<path d="M6210 6180 l0 -50 70 0 70 0 0 44 c0 41 -2 44 -31 50 -17 3 -49 6
-70 6 l-39 0 0 -50z"/>
<path d="M5360 6175 l0 -45 55 0 55 0 0 45 0 45 -55 0 -55 0 0 -45z"/>
<path d="M5500 6175 l0 -45 60 0 60 0 0 45 0 45 -60 0 -60 0 0 -45z"/>
<path d="M6380 6175 l0 -45 60 0 60 0 0 45 0 45 -60 0 -60 0 0 -45z"/>
<path d="M5020 6170 l0 -40 40 0 40 0 0 40 0 40 -40 0 -40 0 0 -40z"/>
<path d="M5120 6170 l0 -40 45 0 45 0 0 40 0 40 -45 0 -45 0 0 -40z"/>
<path d="M5240 6170 l0 -40 50 0 50 0 0 40 0 40 -50 0 -50 0 0 -40z"/>
<path d="M6530 6170 l0 -40 55 0 55 0 0 40 0 40 -55 0 -55 0 0 -40z"/>
<path d="M6660 6170 l0 -40 50 0 50 0 0 40 0 40 -50 0 -50 0 0 -40z"/>
<path d="M6780 6170 l0 -40 50 0 50 0 0 40 0 40 -50 0 -50 0 0 -40z"/>
<path d="M4920 6165 c0 -34 1 -35 40 -35 39 0 40 1 40 35 0 34 -1 35 -40 35
-39 0 -40 -1 -40 -35z"/>
<path d="M6900 6165 c0 -34 1 -35 40 -35 39 0 40 1 40 35 0 34 -1 35 -40 35
-39 0 -40 -1 -40 -35z"/>
<path d="M7400 5955 l0 -95 1425 0 1425 0 0 95 0 95 -1425 0 -1425 0 0 -95z"/>
<path d="M1750 5930 l0 -100 1425 0 1425 0 0 100 0 100 -1425 0 -1425 0 0
-100z"/>
<path d="M6670 5341 c0 -6 17 -11 38 -13 l37 -3 0 -500 0 -500 -37 -3 c-21 -2
-38 -7 -38 -13 0 -5 82 -9 200 -9 117 0 200 4 200 9 0 5 -12 11 -27 13 l-28 3
0 240 c0 229 1 242 22 282 26 47 57 73 89 73 47 0 49 -14 49 -314 l0 -281 -27
-3 c-16 -2 -28 -8 -28 -13 0 -5 81 -9 195 -9 123 0 195 4 195 10 0 6 -15 10
-34 10 l-34 0 -4 258 c-3 236 -5 261 -24 303 -35 76 -112 115 -213 107 -78 -6
-128 -32 -162 -87 l-29 -45 0 247 0 247 -170 0 c-99 0 -170 -4 -170 -9z"/>
<path d="M5250 5330 c0 -5 20 -10 45 -10 l45 0 0 -200 c0 -110 -3 -200 -6
-200 -3 0 -19 11 -35 24 -52 44 -178 47 -256 7 -95 -48 -134 -129 -141 -285
-8 -197 35 -304 145 -360 40 -20 161 -21 206 -2 18 7 45 27 59 45 32 37 38 38
38 7 0 -56 0 -56 166 -56 96 0 154 4 154 10 0 6 -16 10 -35 10 l-35 0 0 510 0
510 -175 0 c-110 0 -175 -4 -175 -10z m35 -396 c9 -4 25 -24 35 -45 18 -34 20
-59 20 -244 0 -224 -7 -259 -54 -290 -35 -23 -76 -9 -98 36 -15 29 -18 63 -18
234 0 201 8 264 38 298 15 17 47 22 77 11z"/>
<path d="M8463 5320 c-48 -15 -83 -63 -83 -115 0 -92 44 -135 138 -135 65 0
106 21 127 66 27 58 10 137 -37 168 -31 20 -104 28 -145 16z"/>
<path d="M6104 5285 c-158 -34 -276 -146 -326 -309 -27 -86 -31 -278 -9 -366
57 -228 237 -344 506 -326 50 3 115 13 145 21 67 18 117 19 123 3 10 -30 16 7
23 150 8 183 -1 193 -60 71 -43 -89 -118 -178 -170 -203 -111 -53 -227 19
-272 169 -24 82 -36 289 -25 427 20 245 82 348 212 348 94 0 175 -71 247 -217
56 -112 65 -101 56 75 -4 81 -8 149 -10 151 -2 2 -10 -2 -19 -9 -17 -14 -45
-11 -160 14 -84 19 -178 19 -261 1z"/>
<path d="M2430 5265 c0 -11 11 -15 40 -15 l40 0 0 -460 0 -460 -40 0 c-29 0
-40 -4 -40 -15 0 -13 48 -15 369 -15 l368 0 6 53 c14 125 20 277 10 277 -6 0
-32 -38 -58 -84 -83 -149 -157 -205 -277 -214 l-68 -5 0 462 0 461 75 0 c60 0
75 3 75 15 0 13 -34 15 -250 15 -216 0 -250 -2 -250 -15z"/>
<path d="M3473 4980 c-61 -13 -110 -38 -138 -71 -46 -55 -45 -146 1 -190 21
-20 36 -24 86 -24 55 0 62 3 89 33 23 26 29 42 29 77 0 39 -3 47 -25 55 -34
13 -36 71 -3 94 78 55 118 -21 118 -224 l0 -97 -102 -6 c-133 -8 -174 -21
-220 -67 -36 -36 -38 -40 -38 -105 0 -116 50 -163 180 -173 94 -6 131 11 176
86 1 1 17 -13 36 -32 84 -84 269 -73 312 18 22 46 34 146 17 146 -6 0 -11 -16
-11 -35 0 -45 -24 -103 -46 -112 -36 -14 -44 21 -44 206 0 283 -21 355 -115
401 -37 18 -68 23 -153 26 -59 2 -126 -1 -149 -6z m155 -472 c-5 -119 -23
-168 -63 -168 -30 0 -39 37 -33 146 3 69 6 79 31 100 16 13 37 24 49 24 19 0
20 -4 16 -102z"/>
<path d="M4476 4975 c-49 -19 -73 -40 -97 -85 l-18 -35 -1 58 0 57 -170 0
c-99 0 -170 -4 -170 -9 0 -6 17 -11 38 -13 l37 -3 0 -310 0 -310 -37 -3 c-21
-2 -38 -7 -38 -13 0 -5 82 -9 200 -9 117 0 200 4 200 9 0 5 -12 11 -27 13
l-28 3 0 240 c0 215 2 244 19 275 28 54 57 80 87 80 52 0 54 -9 54 -314 l0
-281 -27 -3 c-16 -2 -28 -8 -28 -13 0 -5 81 -9 195 -9 115 0 195 4 195 9 0 6
-17 11 -37 13 l-38 3 -5 271 -5 271 -27 40 c-14 22 -43 48 -65 58 -50 25 -155
29 -207 10z"/>
<path d="M7763 4980 c-61 -13 -110 -38 -138 -71 -46 -55 -45 -146 1 -190 21
-20 36 -24 86 -24 55 0 62 3 89 33 23 26 29 42 29 77 0 39 -3 47 -25 55 -34
13 -36 71 -3 94 78 55 118 -21 118 -224 l0 -97 -102 -6 c-133 -8 -174 -21
-220 -67 -36 -36 -38 -40 -38 -105 0 -116 50 -163 180 -173 94 -6 131 11 176
86 1 1 17 -13 36 -32 84 -84 269 -73 312 18 22 46 34 146 17 146 -6 0 -11 -16
-11 -35 0 -45 -24 -103 -46 -112 -36 -14 -44 21 -44 206 0 283 -21 355 -115
401 -37 18 -68 23 -153 26 -59 2 -126 -1 -149 -6z m155 -472 c-5 -119 -23
-168 -63 -168 -30 0 -39 37 -33 146 3 69 6 79 31 100 16 13 37 24 49 24 19 0
20 -4 16 -102z"/>
<path d="M9228 4980 c-48 -14 -85 -42 -112 -83 l-26 -41 0 57 0 57 -165 0
c-103 0 -165 -4 -165 -10 0 -5 16 -10 35 -10 l35 0 0 -315 0 -315 -35 0 c-19
0 -35 -4 -35 -10 0 -6 72 -10 195 -10 114 0 195 4 195 9 0 5 -12 11 -27 13
l-28 3 0 235 c0 220 1 238 22 282 24 52 60 81 95 76 44 -6 48 -34 45 -323 l-2
-270 -27 -3 c-16 -2 -28 -8 -28 -13 0 -5 83 -9 200 -9 118 0 200 4 200 9 0 6
-17 11 -37 13 l-38 3 -5 260 c-5 241 -7 263 -26 300 -28 51 -53 73 -101 91
-42 14 -123 17 -165 4z"/>
<path d="M8300 4961 c0 -6 19 -11 43 -13 l42 -3 0 -310 0 -310 -37 -3 c-21 -2
-38 -7 -38 -13 0 -5 84 -9 205 -9 121 0 205 4 205 9 0 6 -17 11 -37 13 l-38 3
-3 323 -2 322 -170 0 c-100 0 -170 -4 -170 -9z"/>
</g>
</svg>
